<?xml version="1.0" encoding="UTF-8"?>
<svg id="Layer_2" data-name="Layer 2" xmlns="http://www.w3.org/2000/svg" viewBox="0 0 436.67 134.44">
  <defs>
    <style>
      .cls-1 {
        fill: #fff;
        stroke-width: 0px;
      }
    </style>
  </defs>
  <g id="Layer_1-2" data-name="Layer 1">
    <g>
      <g>
        <g>
          <path class="cls-1" d="M231.66,88.56c-.28,1.14-.63,2.63-1.05,4.49-.42,1.85-.83,3.85-1.22,5.99-.18.99-.34,1.95-.51,2.92h-.99c-.19-.99-.36-1.97-.56-2.96-.42-2.11-.83-4.03-1.22-5.74s-.73-3.12-1.01-4.21l-3.77-14.26h-20.12v42.77h11.46v-24.2c0-2.85-.01-5.59-.03-8.23h.9c.01.06.03.12.04.18.6,2.78,1.28,5.68,2.02,8.7.74,3.02,1.61,6.31,2.59,9.87l3.14,11.62h11.39l3.28-11.27c1.03-3.37,1.93-6.67,2.73-9.87.79-3.21,1.5-6.26,2.13-9.16,0-.02,0-.05.02-.07h.81c-.11,2.62-.21,5.35-.3,8.2-.09,2.95-.14,5.8-.14,8.56v15.68h12.57v-42.77h-18.51l-3.63,13.76Z"/>
          <path class="cls-1" d="M285,84.57c-2.58-1.43-5.67-2.14-9.26-2.14s-6.77.71-9.4,2.14c-2.63,1.42-4.66,3.49-6.08,6.2-1.42,2.71-2.13,5.96-2.13,9.76s.71,6.98,2.13,9.69c1.42,2.71,3.45,4.79,6.08,6.24,2.63,1.44,5.77,2.17,9.4,2.17,5.4,0,9.66-1.6,12.78-4.81,3.12-3.21,4.68-7.64,4.68-13.3,0-3.8-.73-7.05-2.17-9.76-1.44-2.71-3.46-4.78-6.04-6.2ZM280.08,106.42c-.84,1.35-2.31,2.03-4.4,2.03-1.4,0-2.52-.3-3.35-.89-.84-.6-1.44-1.49-1.82-2.67-.37-1.19-.56-2.64-.56-4.35,0-2.61.43-4.59,1.29-5.95.86-1.35,2.34-2.03,4.43-2.03,1.4,0,2.52.31,3.35.93.84.61,1.43,1.52,1.78,2.71.35,1.18.53,2.63.53,4.35,0,2.57-.42,4.52-1.26,5.88Z"/>
          <path class="cls-1" d="M325.14,83.82c-1.3-.93-2.91-1.39-4.82-1.39s-3.51.5-5.07,1.5c-1.56,1-2.89,2.52-3.98,4.56-.66,1.23-1.21,2.66-1.65,4.28h-.75v-9.27h-11.53v34.08h11.88v-18.67c0-1.14.19-2.13.56-2.96.37-.84.88-1.47,1.54-1.93.65-.45,1.44-.68,2.37-.68.79,0,1.44.18,1.96.53.51.36.92.85,1.22,1.46.3.62.45,1.38.45,2.28v19.96h11.88v-23.45c0-2.47-.35-4.57-1.05-6.31-.7-1.73-1.7-3.07-3-3.99Z"/>
          <polygon class="cls-1" points="368.11 84.29 368.11 83.5 354.62 83.5 348.14 95.98 346.31 95.98 346.31 71.88 334.43 71.88 334.43 117.58 346.31 117.58 346.31 104.6 347.85 104.6 354.97 117.58 368.46 117.58 368.46 116.79 357.6 100.04 368.11 84.29"/>
          <path class="cls-1" d="M393.64,84.39c-2.21-1.31-5.09-1.96-8.63-1.96-3.78,0-6.96.76-9.57,2.28-2.61,1.53-4.58,3.7-5.9,6.53-1.33,2.83-1.99,6.26-1.99,10.3s.74,7.11,2.23,9.62c1.49,2.52,3.54,4.4,6.15,5.63,2.61,1.24,5.56,1.85,8.87,1.85s6.03-.48,8.03-1.42c2-.95,3.55-2.22,4.64-3.82,1.09-1.59,1.88-3.31,2.34-5.17l-9.85-2.71c-.18.62-.47,1.19-.84,1.71-.38.52-.89.95-1.54,1.28-.65.34-1.56.5-2.73.5-2.05,0-3.52-.64-4.4-1.92-.65-.94-1.06-2.39-1.23-4.35h20.79c.14-.9.22-1.71.24-2.43.02-.71.04-1.47.04-2.28,0-3.14-.56-5.87-1.68-8.2-1.12-2.33-2.78-4.15-4.99-5.45ZM379.23,98.04c.16-2.13.56-3.69,1.21-4.67.86-1.31,2.27-1.96,4.23-1.96,1.77,0,3.06.63,3.88,1.89.67,1.04.98,2.62.94,4.74h-10.26Z"/>
          <path class="cls-1" d="M423.51,83.5l-2.37,12.98c-.38,1.9-.73,3.82-1.08,5.77-.2,1.12-.41,2.26-.63,3.42h-.81c-.28-1.58-.58-3.16-.9-4.74-.32-1.6-.65-3.15-.98-4.67l-2.72-12.76h-12.93l11.4,33.56c-.03.05-.05.11-.08.16-.47.81-1.08,1.34-1.85,1.6-.77.26-1.85.39-3.25.39-.7,0-1.42-.05-2.17-.15-.75-.09-1.47-.21-2.17-.35l-1.61,9.76c.93.15,1.82.26,2.69.36.86.09,1.87.14,3.04.14,3.07,0,5.67-.42,7.79-1.25,2.12-.83,3.88-2.1,5.28-3.81,1.4-1.71,2.58-3.9,3.56-6.56l12.58-33.86h-12.79Z"/>
        </g>
        <g>
          <path class="cls-1" d="M228.02,50.54c-.55,1.2-1.33,2.1-2.32,2.7-.99.6-2.31.89-3.97.89-1.98,0-3.57-.46-4.77-1.38-1.2-.92-2.06-2.21-2.59-3.87-.53-1.66-.8-3.68-.8-6.08,0-1.98.26-3.78.8-5.39.53-1.61,1.39-2.93,2.59-3.94,1.2-1.01,2.79-1.52,4.77-1.52,2.4,0,4.15.67,5.25,2,1.11,1.34,1.86,3.3,2.28,5.88l11.89-2.22c-.37-3.59-1.34-6.61-2.9-9.05-1.57-2.44-3.71-4.29-6.43-5.53-2.72-1.25-5.94-1.87-9.67-1.87-4.19,0-7.87.84-11.02,2.52-3.16,1.69-5.6,4.14-7.33,7.36-1.73,3.23-2.59,7.14-2.59,11.75,0,3.45.47,6.54,1.42,9.26.94,2.72,2.29,5.01,4.04,6.87,1.75,1.87,3.91,3.3,6.5,4.29,2.58.99,5.48,1.48,8.71,1.48,3.69,0,6.91-.64,9.68-1.93,2.76-1.29,4.96-3.18,6.6-5.66,1.63-2.49,2.66-5.51,3.08-9.06l-11.82-1.93c-.37,1.75-.83,3.22-1.38,4.42Z"/>
          <path class="cls-1" d="M270.69,31.68c-2.56-1.38-5.61-2.08-9.16-2.08s-6.69.69-9.3,2.08c-2.6,1.38-4.61,3.39-6.01,6.01-1.41,2.63-2.11,5.78-2.11,9.47s.7,6.77,2.11,9.4c1.41,2.63,3.41,4.65,6.01,6.05,2.6,1.4,5.7,2.1,9.3,2.1,5.34,0,9.56-1.55,12.65-4.66,3.09-3.11,4.63-7.41,4.63-12.89,0-3.68-.72-6.84-2.14-9.47-1.43-2.63-3.42-4.63-5.98-6.01ZM265.82,52.86c-.83,1.31-2.28,1.97-4.35,1.97-1.38,0-2.49-.29-3.32-.86-.83-.58-1.43-1.44-1.8-2.59-.37-1.15-.55-2.56-.55-4.22,0-2.53.42-4.45,1.28-5.77.85-1.31,2.31-1.97,4.39-1.97,1.38,0,2.49.3,3.32.9.83.6,1.42,1.47,1.76,2.63.35,1.15.52,2.55.52,4.21,0,2.49-.42,4.39-1.25,5.7Z"/>
          <path class="cls-1" d="M310.4,30.95c-1.29-.9-2.88-1.35-4.77-1.35s-3.47.48-5.01,1.45c-1.54.97-2.86,2.44-3.94,4.42-.65,1.19-1.19,2.58-1.64,4.15h-.75v-8.99h-11.41v33.04h11.75v-18.11c0-1.11.19-2.06.55-2.87.37-.81.87-1.43,1.52-1.87.64-.44,1.43-.66,2.35-.66.78,0,1.43.17,1.93.52.51.35.91.82,1.21,1.42.3.6.45,1.34.45,2.21v19.35h11.75v-22.74c0-2.4-.35-4.43-1.04-6.11-.69-1.68-1.68-2.98-2.97-3.87Z"/>
          <path class="cls-1" d="M337.7,53.38c-.74.19-1.43.28-2.07.28-1.15,0-1.93-.24-2.35-.73-.41-.48-.62-1.19-.62-2.11v-11.06h7.53v-9.12h-7.53v-8.08h-11.75v8.08h-3.39v9.12h3.39v13.2c0,2.12.39,4.07,1.18,5.84.78,1.77,2.03,3.2,3.73,4.29,1.7,1.08,3.91,1.62,6.63,1.62,1.34,0,2.46-.06,3.35-.17.9-.12,1.73-.27,2.49-.45.76-.19,1.58-.42,2.45-.69l-1.24-10.51c-.46.14-1.06.3-1.8.48Z"/>
          <path class="cls-1" d="M368.32,31.3c-2.17-1.03-5.05-1.55-8.64-1.55-3.27,0-5.99.46-8.16,1.38-2.17.92-3.82,2.15-4.98,3.7-1.15,1.54-1.91,3.28-2.28,5.22l10.99,2.35c.28-1.24.74-2.13,1.38-2.66.64-.53,1.5-.79,2.56-.79,1.29,0,2.23.33,2.83,1,.6.67.9,1.63.9,2.87v2.21h-7.33c-4.61,0-7.86.9-9.74,2.69-1.89,1.8-2.83,4.17-2.83,7.12,0,2.21.42,4.01,1.28,5.39.85,1.38,1.98,2.42,3.39,3.11,1.41.69,2.96,1.03,4.67,1.03,2.3,0,4.19-.55,5.67-1.66,1.47-1.11,2.65-2.6,3.52-4.49.35-.76.65-1.58.92-2.42h1.01v7.88h11.13v-20.87c0-2.81-.51-5.17-1.52-7.08-1.02-1.91-2.6-3.39-4.77-4.43ZM362.92,50.68c0,.92-.21,1.76-.62,2.52-.42.77-.99,1.35-1.73,1.77-.74.41-1.63.62-2.69.62-.92,0-1.67-.14-2.25-.41-.58-.28-.98-.64-1.21-1.07-.23-.44-.35-.96-.35-1.55,0-.92.37-1.66,1.11-2.22.74-.55,1.7-.83,2.91-.83h4.84v1.18Z"/>
          <path class="cls-1" d="M395.62,39.9c1.11,0,1.97.21,2.59.62.62.41,1.09.99,1.42,1.73.32.74.6,1.54.83,2.42l10.85-1.93c-.41-2.72-1.16-5.06-2.25-7.01-1.08-1.96-2.68-3.47-4.8-4.53-2.12-1.06-4.93-1.59-8.43-1.59s-6.75.71-9.33,2.14c-2.58,1.43-4.54,3.49-5.87,6.19-1.34,2.69-2,5.98-2,9.85s.7,6.99,2.11,9.5c1.41,2.51,3.4,4.38,5.98,5.6,2.58,1.22,5.62,1.83,9.12,1.83,4.93,0,8.63-1.15,11.09-3.45,2.47-2.31,3.93-5.42,4.39-9.33l-10.71-2.49c-.19.87-.46,1.7-.83,2.49-.37.78-.88,1.42-1.52,1.9-.65.48-1.47.73-2.49.73-1.2,0-2.17-.3-2.9-.9-.74-.6-1.29-1.45-1.66-2.55-.37-1.11-.55-2.47-.55-4.08,0-2.58.46-4.42,1.38-5.49.92-1.09,2.12-1.63,3.59-1.63Z"/>
          <path class="cls-1" d="M433.63,53.38c-.74.19-1.43.28-2.07.28-1.15,0-1.93-.24-2.35-.73-.41-.48-.62-1.19-.62-2.11v-11.06h7.53v-9.12h-7.53v-8.08h-11.75v8.08h-3.39v9.12h3.39v13.2c0,2.12.39,4.07,1.18,5.84.78,1.77,2.03,3.2,3.73,4.29,1.7,1.08,3.91,1.62,6.63,1.62,1.34,0,2.46-.06,3.35-.17.9-.12,1.73-.27,2.49-.45.76-.19,1.58-.42,2.45-.69l-1.24-10.51c-.46.14-1.06.3-1.8.48Z"/>
        </g>
      </g>
      <g>
        <path class="cls-1" d="M126.98,121.93c9.88-8.03,14.02-19.8,19.61-30.81,1.14-1.3,2.78-2.08,4.4-2.66,9.93-3.09,17.17-12.66,17.06-23.13v-.31c-.06-10.06-6.93-19.28-16.37-22.49-1.55-.62-3.34-1.33-4.48-2.51C137.27,22.75,127.28,4.77,104.36.75,97.85-.22,90.97,0,84.21.09h-.37c-6.76-.1-13.64-.31-20.16.66C40.76,4.77,30.78,22.75,20.85,40.03c-1.14,1.18-2.93,1.9-4.48,2.51C6.93,45.75.06,54.97,0,65.03v.31c-.11,10.47,7.13,20.04,17.06,23.13,1.62.58,3.26,1.36,4.4,2.66,5.58,11.01,9.73,22.78,19.61,30.81,8.55,8.3,20.86,13.01,30.31,12.46,3.41,0,7.9,0,12.46,0h.36c4.56,0,9.05,0,12.46,0,9.45.55,21.76-4.16,30.31-12.46ZM52.39,85.89c0-.07,0-.13.01-.2-12.02-4.53-20.59-16.07-20.59-29.65,0-17.52,14.24-31.71,31.81-31.71,7.86,0,15.03,2.85,20.58,7.56,5.55-4.7,12.73-7.56,20.58-7.56,17.57,0,31.81,14.2,31.81,31.71,0,13.57-8.57,25.12-20.59,29.65,0,.07.01.13.01.2,0,17.52-14.24,31.71-31.81,31.71s-31.81-14.2-31.81-31.71Z"/>
        <path class="cls-1" d="M122.04,70.27c2.86-2.54,2.61-7.77,2.2-11.27l-.07-.33c-4.63-17.93-26.44-18.41-41.65-18.46-14.67.07-35.52,1.95-38.83,19.36-.27,3.83-.61,9.44,3.46,11.42,5.99,1.47,15.01,1.56,19.08-3.87,2.48-2.81.7-7.95,3.14-10.47.97-.95,2.53-1.08,3.88-1.14,4.29-.21,8.78-.18,12.94-.18,3.93.27,8.29-.54,11.95.93,1.51.87,1.93,3.12,1.96,4.89.02,5.22,2.77,8.51,7.58,9.88,4.62.75,10.22,1.73,14.36-.77Z"/>
      </g>
    </g>
  </g>
</svg>